<?xml version="1.0" encoding="UTF-8" standalone="no"?>
<!DOCTYPE svg PUBLIC "-//W3C//DTD SVG 1.1//EN"
 "http://www.w3.org/Graphics/SVG/1.1/DTD/svg11.dtd">
<!-- Generated by graphviz version 2.40.1 (20161225.0304)
 -->
<!-- Title: G Pages: 1 -->
<svg width="654pt" height="379pt"
 viewBox="0.00 0.00 654.00 378.91" xmlns="http://www.w3.org/2000/svg" xmlns:xlink="http://www.w3.org/1999/xlink">
<g id="graph0" class="graph" transform="scale(1 1) rotate(0) translate(4 374.9117)">
<title>G</title>
<polygon fill="#ffffff" stroke="transparent" points="-4,4 -4,-374.9117 650,-374.9117 650,4 -4,4"/>
<g id="clust1" class="cluster">
<title>cluster0</title>
<polygon fill="#ffc0cb" stroke="#ffc0cb" points="8,-8 8,-362.9117 638,-362.9117 638,-8 8,-8"/>
</g>
<!-- sweepsummary -->
<g id="node1" class="node">
<title>sweepsummary</title>
<g id="a_node1"><a xlink:href="https://www.youtube.com/watch?v=cxc6uoaso7Q" xlink:title="&lt;TABLE&gt;">
<polygon fill="none" stroke="#ffa500" points="613.5,-354.9117 526.5,-354.9117 526.5,-318.9117 613.5,-318.9117 613.5,-354.9117"/>
<text text-anchor="start" x="534.5308" y="-333.9117" font-family="Times,serif" font-size="10.00" fill="#000000">Sweeps Summary</text>
</a>
</g>
</g>
<!-- omoplata -->
<g id="node2" class="node">
<title>omoplata</title>
<g id="a_node2"><a xlink:href="https://www.youtube.com/watch?v=tfvEGtSCIRI" xlink:title="&lt;TABLE&gt;">
<polygon fill="none" stroke="#ffa500" points="445.5,-354.9117 386.5,-354.9117 386.5,-318.9117 445.5,-318.9117 445.5,-354.9117"/>
<text text-anchor="start" x="394.8374" y="-333.9117" font-family="Times,serif" font-size="10.00" fill="#000000">Omoplatas</text>
</a>
</g>
</g>
<!-- standing -->
<g id="node3" class="node">
<title>standing</title>
<ellipse fill="#c0c0c0" stroke="#c0c0c0" cx="202" cy="-336.9117" rx="40.149" ry="18"/>
<text text-anchor="middle" x="202" y="-332.7117" font-family="Times,serif" font-size="14.00" fill="#000000">standing</text>
</g>
<!-- take_down -->
<g id="node4" class="node">
<title>take_down</title>
<ellipse fill="#add8e6" stroke="#add8e6" cx="170" cy="-264.9117" rx="48.8187" ry="18"/>
<text text-anchor="middle" x="170" y="-260.7117" font-family="Times,serif" font-size="14.00" fill="#000000">take_down</text>
</g>
<!-- standing&#45;&gt;take_down -->
<g id="edge1" class="edge">
<title>standing&#45;&gt;take_down</title>
<path fill="none" stroke="#000000" d="M194.0899,-319.1139C190.4745,-310.9792 186.1112,-301.1618 182.0969,-292.1298"/>
<polygon fill="#000000" stroke="#000000" points="185.1898,-290.4709 177.93,-282.7542 178.7931,-293.3139 185.1898,-290.4709"/>
</g>
<!-- taken_down -->
<g id="node5" class="node">
<title>taken_down</title>
<ellipse fill="#ff0000" stroke="#ff0000" cx="405" cy="-264.9117" rx="53.1625" ry="18"/>
<text text-anchor="middle" x="405" y="-260.7117" font-family="Times,serif" font-size="14.00" fill="#000000">taken_down</text>
</g>
<!-- standing&#45;&gt;taken_down -->
<g id="edge2" class="edge">
<title>standing&#45;&gt;taken_down</title>
<path fill="none" stroke="#000000" d="M233.7188,-325.6617C267.0894,-313.8258 319.9647,-295.072 358.1439,-281.5306"/>
<polygon fill="#000000" stroke="#000000" points="359.748,-284.6754 368.0027,-278.0339 357.408,-278.078 359.748,-284.6754"/>
</g>
<!-- mount -->
<g id="node11" class="node">
<title>mount</title>
<ellipse fill="#add8e6" stroke="#add8e6" cx="49" cy="-192.9117" rx="32.9168" ry="18"/>
<text text-anchor="middle" x="49" y="-188.7117" font-family="Times,serif" font-size="14.00" fill="#000000">mount</text>
</g>
<!-- take_down&#45;&gt;mount -->
<g id="edge8" class="edge">
<title>take_down&#45;&gt;mount</title>
<path fill="none" stroke="#000000" d="M144.0425,-249.4659C125.2543,-238.2862 99.7824,-223.1293 79.9372,-211.3206"/>
<polygon fill="#000000" stroke="#000000" points="81.6428,-208.2628 71.2593,-206.1569 78.0632,-214.2783 81.6428,-208.2628"/>
</g>
<!-- side_control -->
<g id="node12" class="node">
<title>side_control</title>
<ellipse fill="#add8e6" stroke="#add8e6" cx="154" cy="-192.9117" rx="53.6471" ry="18"/>
<text text-anchor="middle" x="154" y="-188.7117" font-family="Times,serif" font-size="14.00" fill="#000000">side_control</text>
</g>
<!-- take_down&#45;&gt;side_control -->
<g id="edge9" class="edge">
<title>take_down&#45;&gt;side_control</title>
<path fill="none" stroke="#000000" d="M165.9625,-246.743C164.2513,-239.0426 162.2165,-229.886 160.3148,-221.3283"/>
<polygon fill="#000000" stroke="#000000" points="163.6779,-220.3275 158.0918,-211.325 156.8446,-221.8461 163.6779,-220.3275"/>
</g>
<!-- guard -->
<g id="node13" class="node">
<title>guard</title>
<ellipse fill="#add8e6" stroke="#add8e6" cx="256" cy="-192.9117" rx="30.4862" ry="18"/>
<text text-anchor="middle" x="256" y="-188.7117" font-family="Times,serif" font-size="14.00" fill="#000000">guard</text>
</g>
<!-- take_down&#45;&gt;guard -->
<g id="edge10" class="edge">
<title>take_down&#45;&gt;guard</title>
<path fill="none" stroke="#000000" d="M189.9463,-248.2125C202.0271,-238.0983 217.5548,-225.0984 230.5195,-214.2442"/>
<polygon fill="#000000" stroke="#000000" points="232.786,-216.9114 238.2068,-207.8083 228.2924,-211.544 232.786,-216.9114"/>
</g>
<!-- mounted -->
<g id="node6" class="node">
<title>mounted</title>
<ellipse fill="#ff0000" stroke="#ff0000" cx="345" cy="-192.9117" rx="41.1093" ry="18"/>
<text text-anchor="middle" x="345" y="-188.7117" font-family="Times,serif" font-size="14.00" fill="#000000">mounted</text>
</g>
<!-- taken_down&#45;&gt;mounted -->
<g id="edge3" class="edge">
<title>taken_down&#45;&gt;mounted</title>
<path fill="none" stroke="#000000" d="M390.4757,-247.4825C383.1058,-238.6386 374.0199,-227.7356 365.912,-218.0061"/>
<polygon fill="#000000" stroke="#000000" points="368.4812,-215.622 359.3906,-210.1804 363.1037,-220.1033 368.4812,-215.622"/>
</g>
<!-- side_controled -->
<g id="node7" class="node">
<title>side_controled</title>
<ellipse fill="#ff0000" stroke="#ff0000" cx="466" cy="-192.9117" rx="62.3407" ry="18"/>
<text text-anchor="middle" x="466" y="-188.7117" font-family="Times,serif" font-size="14.00" fill="#000000">side_controled</text>
</g>
<!-- taken_down&#45;&gt;side_controled -->
<g id="edge4" class="edge">
<title>taken_down&#45;&gt;side_controled</title>
<path fill="none" stroke="#000000" d="M419.7664,-247.4825C427.2041,-238.7036 436.3607,-227.8958 444.5574,-218.2209"/>
<polygon fill="#000000" stroke="#000000" points="447.3644,-220.3223 451.1582,-210.4299 442.0235,-215.7973 447.3644,-220.3223"/>
</g>
<!-- in_guard -->
<g id="node8" class="node">
<title>in_guard</title>
<ellipse fill="#ff0000" stroke="#ff0000" cx="588" cy="-192.9117" rx="41.5852" ry="18"/>
<text text-anchor="middle" x="588" y="-188.7117" font-family="Times,serif" font-size="14.00" fill="#000000">in_guard</text>
</g>
<!-- taken_down&#45;&gt;in_guard -->
<g id="edge5" class="edge">
<title>taken_down&#45;&gt;in_guard</title>
<path fill="none" stroke="#000000" d="M439.8516,-251.1996C470.5833,-239.1084 515.3707,-221.4872 547.6477,-208.788"/>
<polygon fill="#000000" stroke="#000000" points="549.2095,-211.9348 557.2337,-205.0165 546.6466,-205.4208 549.2095,-211.9348"/>
</g>
<!-- halfguardd -->
<g id="node9" class="node">
<title>halfguardd</title>
<g id="a_node9"><a xlink:href="https://www.youtube.com/watch?v=q2OAJF__P2w" xlink:title="&lt;TABLE&gt;">
<polygon fill="none" stroke="#0000ff" stroke-dasharray="1,5" points="551,-138.9117 421,-138.9117 421,-102.9117 551,-102.9117 551,-138.9117"/>
<text text-anchor="start" x="459.2266" y="-126.5117" font-family="Times,serif" font-size="8.00" fill="#000000">bridge to side 45</text>
<text text-anchor="start" x="433.1387" y="-118.5117" font-family="Times,serif" font-size="8.00" fill="#000000">far leg reaches over and traps leg</text>
<text text-anchor="start" x="428.7891" y="-110.5117" font-family="Times,serif" font-size="8.00" fill="#000000">lift leg and push down to half guard</text>
</a>
</g>
</g>
<!-- mounted&#45;&gt;halfguardd -->
<g id="edge6" class="edge">
<title>mounted&#45;&gt;halfguardd</title>
<path fill="none" stroke="#000000" d="M371.8529,-179.1996C391.5163,-169.1587 418.6482,-155.3041 441.5263,-143.6217"/>
<polygon fill="#000000" stroke="#000000" points="443.3953,-146.5972 450.7097,-138.9323 440.2119,-140.363 443.3953,-146.5972"/>
</g>
<!-- halfguard -->
<g id="node10" class="node">
<title>halfguard</title>
<ellipse fill="#ff0000" stroke="#ff0000" cx="491" cy="-41.4558" rx="46.4045" ry="18"/>
<text text-anchor="middle" x="491" y="-37.2558" font-family="Times,serif" font-size="14.00" fill="#000000">half guard</text>
</g>
<!-- halfguardd&#45;&gt;halfguard -->
<g id="edge7" class="edge">
<title>halfguardd&#45;&gt;halfguard</title>
<path fill="none" stroke="#000000" d="M487.1346,-102.8819C487.7503,-93.0972 488.5255,-80.7792 489.2197,-69.7474"/>
<polygon fill="#000000" stroke="#000000" points="492.7176,-69.8894 489.8526,-59.6893 485.7314,-69.4497 492.7176,-69.8894"/>
</g>
<!-- triangle -->
<g id="node14" class="node">
<title>triangle</title>
<ellipse fill="#add8e6" stroke="#add8e6" cx="171" cy="-120.9117" rx="37.2334" ry="18"/>
<text text-anchor="middle" x="171" y="-116.7117" font-family="Times,serif" font-size="14.00" fill="#000000">triangle</text>
</g>
<!-- guard&#45;&gt;triangle -->
<g id="edge11" class="edge">
<title>guard&#45;&gt;triangle</title>
<path fill="none" stroke="#000000" d="M238.3879,-177.9932C226.5488,-167.9648 210.7312,-154.5664 197.3961,-143.2707"/>
<polygon fill="#000000" stroke="#000000" points="199.3643,-140.351 189.4716,-136.5582 194.8398,-145.6923 199.3643,-140.351"/>
</g>
<!-- armbar -->
<g id="node15" class="node">
<title>armbar</title>
<ellipse fill="#add8e6" stroke="#add8e6" cx="261" cy="-120.9117" rx="35.2956" ry="18"/>
<text text-anchor="middle" x="261" y="-116.7117" font-family="Times,serif" font-size="14.00" fill="#000000">armbar</text>
</g>
<!-- guard&#45;&gt;armbar -->
<g id="edge12" class="edge">
<title>guard&#45;&gt;armbar</title>
<path fill="none" stroke="#000000" d="M257.2617,-174.743C257.7965,-167.0426 258.4323,-157.886 259.0266,-149.3283"/>
<polygon fill="#000000" stroke="#000000" points="262.52,-149.5434 259.7213,-139.325 255.5368,-149.0584 262.52,-149.5434"/>
</g>
<!-- sweepSissor -->
<g id="node16" class="node">
<title>sweepSissor</title>
<g id="a_node16"><a xlink:href="https://www.youtube.com/watch?v=HHs1ftjayUw" xlink:title="&lt;TABLE&gt;">
<polygon fill="none" stroke="#0000ff" stroke-dasharray="1,5" points="393.5,-138.9117 332.5,-138.9117 332.5,-102.9117 393.5,-102.9117 393.5,-138.9117"/>
<text text-anchor="start" x="343.3906" y="-126.5117" font-family="Times,serif" font-size="8.00" fill="#000000">sissor sweep</text>
<text text-anchor="start" x="342.2852" y="-118.5117" font-family="Times,serif" font-size="8.00" fill="#000000">xande Sweep</text>
<text text-anchor="start" x="340.5039" y="-110.5117" font-family="Times,serif" font-size="8.00" fill="#000000">Flower Sweep</text>
</a>
</g>
</g>
<!-- guard&#45;&gt;sweepSissor -->
<g id="edge13" class="edge">
<title>guard&#45;&gt;sweepSissor</title>
<path fill="none" stroke="#000000" d="M276.1259,-179.369C290.5603,-169.6561 310.3914,-156.3119 327.4622,-144.825"/>
<polygon fill="#000000" stroke="#000000" points="329.7517,-147.503 336.0944,-139.0164 325.8438,-141.6954 329.7517,-147.503"/>
</g>
<!-- ltr -->
<g id="node18" class="node">
<title>ltr</title>
<ellipse fill="none" stroke="#000000" cx="97" cy="-41.4558" rx="81.3156" ry="25.4118"/>
<text text-anchor="start" x="51.8931" y="-44.2558" font-family="Times,serif" font-size="14.00" fill="#000000">bicept split with</text>
<text text-anchor="start" x="47.436" y="-30.2558" font-family="Times,serif" font-size="14.00" fill="#000000"> arm leg triangled</text>
</g>
<!-- armbar&#45;&gt;ltr -->
<g id="edge15" class="edge">
<title>armbar&#45;&gt;ltr</title>
<path fill="none" stroke="#000000" d="M235.375,-108.4967C212.695,-97.5086 178.8631,-81.1175 150.3298,-67.2934"/>
<polygon fill="#000000" stroke="#000000" points="151.7982,-64.1157 141.2727,-62.9054 148.7461,-70.4153 151.7982,-64.1157"/>
</g>
<!-- choke -->
<g id="node19" class="node">
<title>choke</title>
<ellipse fill="none" stroke="#000000" cx="270" cy="-41.4558" rx="73.3134" ry="25.4118"/>
<text text-anchor="start" x="237.9326" y="-44.2558" font-family="Times,serif" font-size="14.00" fill="#000000">lapel choke</text>
<text text-anchor="start" x="226.2705" y="-30.2558" font-family="Times,serif" font-size="14.00" fill="#000000"> head above leg</text>
</g>
<!-- armbar&#45;&gt;choke -->
<g id="edge16" class="edge">
<title>armbar&#45;&gt;choke</title>
<path fill="none" stroke="#000000" d="M263.0422,-102.8819C263.9071,-95.247 264.9466,-86.0697 265.9552,-77.1646"/>
<polygon fill="#000000" stroke="#000000" points="269.4651,-77.275 267.1129,-66.9445 262.5095,-76.4871 269.4651,-77.275"/>
</g>
<!-- mounte1 -->
<g id="node17" class="node">
<title>mounte1</title>
<ellipse fill="none" stroke="#00ff00" stroke-dasharray="1,5" cx="394" cy="-41.4558" rx="32.9168" ry="18"/>
<text text-anchor="middle" x="394" y="-37.2558" font-family="Times,serif" font-size="14.00" fill="#000000">mount</text>
</g>
<!-- sweepSissor&#45;&gt;mounte1 -->
<g id="edge14" class="edge">
<title>sweepSissor&#45;&gt;mounte1</title>
<path fill="none" stroke="#000000" d="M370.0344,-102.8819C373.9859,-92.7538 378.9964,-79.9115 383.4132,-68.5909"/>
<polygon fill="#000000" stroke="#000000" points="386.7261,-69.7288 387.1002,-59.1406 380.2049,-67.1845 386.7261,-69.7288"/>
</g>
</g>
</svg>
