<?xml version="1.0" encoding="UTF-8" standalone="no"?>
<!DOCTYPE svg PUBLIC "-//W3C//DTD SVG 1.1//EN"
 "http://www.w3.org/Graphics/SVG/1.1/DTD/svg11.dtd">
<!-- Generated by graphviz version 2.40.1 (20161225.0304)
 -->
<!-- Title: G Pages: 1 -->
<svg width="796pt" height="379pt"
 viewBox="0.00 0.00 796.00 378.91" xmlns="http://www.w3.org/2000/svg" xmlns:xlink="http://www.w3.org/1999/xlink">
<g id="graph0" class="graph" transform="scale(1 1) rotate(0) translate(4 374.9117)">
<title>G</title>
<polygon fill="#ffffff" stroke="transparent" points="-4,4 -4,-374.9117 792,-374.9117 792,4 -4,4"/>
<g id="clust1" class="cluster">
<title>cluster0</title>
<polygon fill="#ffc0cb" stroke="#ffc0cb" points="8,-8 8,-362.9117 780,-362.9117 780,-8 8,-8"/>
</g>
<!-- sweepsummary -->
<g id="node1" class="node">
<title>sweepsummary</title>
<g id="a_node1"><a xlink:href="https://www.youtube.com/watch?v=cxc6uoaso7Q" xlink:title="&lt;TABLE&gt;">
<polygon fill="none" stroke="#ffa500" points="746.5,-354.9117 659.5,-354.9117 659.5,-318.9117 746.5,-318.9117 746.5,-354.9117"/>
<text text-anchor="start" x="667.5308" y="-333.9117" font-family="Times,serif" font-size="10.00" fill="#000000">Sweeps Summary</text>
</a>
</g>
</g>
<!-- omoplata1 -->
<g id="node2" class="node">
<title>omoplata1</title>
<g id="a_node2"><a xlink:href="https://www.youtube.com/watch?v=tfvEGtSCIRI" xlink:title="&lt;TABLE&gt;">
<polygon fill="none" stroke="#ffa500" points="542.5,-354.9117 483.5,-354.9117 483.5,-318.9117 542.5,-318.9117 542.5,-354.9117"/>
<text text-anchor="start" x="491.8374" y="-333.9117" font-family="Times,serif" font-size="10.00" fill="#000000">Omoplatas</text>
</a>
</g>
</g>
<!-- standing -->
<g id="node3" class="node">
<title>standing</title>
<ellipse fill="#c0c0c0" stroke="#c0c0c0" cx="228" cy="-336.9117" rx="40.149" ry="18"/>
<text text-anchor="middle" x="228" y="-332.7117" font-family="Times,serif" font-size="14.00" fill="#000000">standing</text>
</g>
<!-- take_down -->
<g id="node4" class="node">
<title>take_down</title>
<ellipse fill="#add8e6" stroke="#add8e6" cx="179" cy="-264.9117" rx="48.8187" ry="18"/>
<text text-anchor="middle" x="179" y="-260.7117" font-family="Times,serif" font-size="14.00" fill="#000000">take_down</text>
</g>
<!-- standing&#45;&gt;take_down -->
<g id="edge1" class="edge">
<title>standing&#45;&gt;take_down</title>
<path fill="none" stroke="#000000" d="M216.1385,-319.4825C210.2834,-310.8792 203.1023,-300.3273 196.6203,-290.8028"/>
<polygon fill="#000000" stroke="#000000" points="199.4419,-288.7279 190.9221,-282.4299 193.6549,-292.6663 199.4419,-288.7279"/>
</g>
<!-- taken_down -->
<g id="node5" class="node">
<title>taken_down</title>
<ellipse fill="#ff0000" stroke="#ff0000" cx="466" cy="-264.9117" rx="53.1625" ry="18"/>
<text text-anchor="middle" x="466" y="-260.7117" font-family="Times,serif" font-size="14.00" fill="#000000">taken_down</text>
</g>
<!-- standing&#45;&gt;taken_down -->
<g id="edge2" class="edge">
<title>standing&#45;&gt;taken_down</title>
<path fill="none" stroke="#000000" d="M261.3435,-326.8246C301.7129,-314.612 370.0598,-293.9356 416.5639,-279.8671"/>
<polygon fill="#000000" stroke="#000000" points="417.5798,-283.2165 426.138,-276.9708 415.5529,-276.5164 417.5798,-283.2165"/>
</g>
<!-- mount -->
<g id="node14" class="node">
<title>mount</title>
<ellipse fill="#add8e6" stroke="#add8e6" cx="49" cy="-192.9117" rx="32.9168" ry="18"/>
<text text-anchor="middle" x="49" y="-188.7117" font-family="Times,serif" font-size="14.00" fill="#000000">mount</text>
</g>
<!-- take_down&#45;&gt;mount -->
<g id="edge11" class="edge">
<title>take_down&#45;&gt;mount</title>
<path fill="none" stroke="#000000" d="M151.7477,-249.8181C131.1614,-238.4164 102.8443,-222.7331 81.1502,-210.7179"/>
<polygon fill="#000000" stroke="#000000" points="82.7437,-207.5996 72.3,-205.8163 79.3522,-213.7231 82.7437,-207.5996"/>
</g>
<!-- side_control -->
<g id="node15" class="node">
<title>side_control</title>
<ellipse fill="#add8e6" stroke="#add8e6" cx="154" cy="-192.9117" rx="53.6471" ry="18"/>
<text text-anchor="middle" x="154" y="-188.7117" font-family="Times,serif" font-size="14.00" fill="#000000">side_control</text>
</g>
<!-- take_down&#45;&gt;side_control -->
<g id="edge12" class="edge">
<title>take_down&#45;&gt;side_control</title>
<path fill="none" stroke="#000000" d="M172.6914,-246.743C169.9169,-238.7523 166.5979,-229.1935 163.5317,-220.3631"/>
<polygon fill="#000000" stroke="#000000" points="166.8065,-219.1238 160.2199,-210.8251 160.1938,-221.4199 166.8065,-219.1238"/>
</g>
<!-- guard -->
<g id="node16" class="node">
<title>guard</title>
<ellipse fill="#add8e6" stroke="#add8e6" cx="256" cy="-192.9117" rx="30.4862" ry="18"/>
<text text-anchor="middle" x="256" y="-188.7117" font-family="Times,serif" font-size="14.00" fill="#000000">guard</text>
</g>
<!-- take_down&#45;&gt;guard -->
<g id="edge13" class="edge">
<title>take_down&#45;&gt;guard</title>
<path fill="none" stroke="#000000" d="M197.2479,-247.8487C207.7268,-238.0503 221.0038,-225.6354 232.2842,-215.0875"/>
<polygon fill="#000000" stroke="#000000" points="234.8021,-217.5249 239.7159,-208.1384 230.0211,-212.4119 234.8021,-217.5249"/>
</g>
<!-- mounted -->
<g id="node6" class="node">
<title>mounted</title>
<ellipse fill="#ff0000" stroke="#ff0000" cx="345" cy="-192.9117" rx="41.1093" ry="18"/>
<text text-anchor="middle" x="345" y="-188.7117" font-family="Times,serif" font-size="14.00" fill="#000000">mounted</text>
</g>
<!-- taken_down&#45;&gt;mounted -->
<g id="edge3" class="edge">
<title>taken_down&#45;&gt;mounted</title>
<path fill="none" stroke="#000000" d="M439.446,-249.111C421.4293,-238.3903 397.4741,-224.1359 378.1979,-212.6658"/>
<polygon fill="#000000" stroke="#000000" points="379.8173,-209.5567 369.4338,-207.4508 376.2377,-215.5722 379.8173,-209.5567"/>
</g>
<!-- side_controled -->
<g id="node7" class="node">
<title>side_controled</title>
<ellipse fill="#ff0000" stroke="#ff0000" cx="466" cy="-192.9117" rx="62.3407" ry="18"/>
<text text-anchor="middle" x="466" y="-188.7117" font-family="Times,serif" font-size="14.00" fill="#000000">side_controled</text>
</g>
<!-- taken_down&#45;&gt;side_controled -->
<g id="edge4" class="edge">
<title>taken_down&#45;&gt;side_controled</title>
<path fill="none" stroke="#000000" d="M466,-246.743C466,-239.0426 466,-229.886 466,-221.3283"/>
<polygon fill="#000000" stroke="#000000" points="469.5001,-221.3249 466,-211.325 462.5001,-221.325 469.5001,-221.3249"/>
</g>
<!-- in_guard -->
<g id="node8" class="node">
<title>in_guard</title>
<ellipse fill="#ff0000" stroke="#ff0000" cx="588" cy="-192.9117" rx="41.5852" ry="18"/>
<text text-anchor="middle" x="588" y="-188.7117" font-family="Times,serif" font-size="14.00" fill="#000000">in_guard</text>
</g>
<!-- taken_down&#45;&gt;in_guard -->
<g id="edge5" class="edge">
<title>taken_down&#45;&gt;in_guard</title>
<path fill="none" stroke="#000000" d="M492.7734,-249.111C510.9391,-238.3903 535.0923,-224.1359 554.5277,-212.6658"/>
<polygon fill="#000000" stroke="#000000" points="556.5311,-215.5476 563.3643,-207.4508 552.9733,-209.5192 556.5311,-215.5476"/>
</g>
<!-- knee_on_belly -->
<g id="node9" class="node">
<title>knee_on_belly</title>
<ellipse fill="#ff0000" stroke="#ff0000" cx="710" cy="-192.9117" rx="62.3407" ry="18"/>
<text text-anchor="middle" x="710" y="-188.7117" font-family="Times,serif" font-size="14.00" fill="#000000">knee_on_belly</text>
</g>
<!-- taken_down&#45;&gt;knee_on_belly -->
<g id="edge6" class="edge">
<title>taken_down&#45;&gt;knee_on_belly</title>
<path fill="none" stroke="#000000" d="M506.2916,-253.0224C547.4016,-240.8915 611.4198,-222.0009 656.7025,-208.6388"/>
<polygon fill="#000000" stroke="#000000" points="657.7507,-211.9788 666.3513,-205.7916 655.7696,-205.265 657.7507,-211.9788"/>
</g>
<!-- halfguardd -->
<g id="node11" class="node">
<title>halfguardd</title>
<g id="a_node11"><a xlink:href="https://www.youtube.com/watch?v=q2OAJF__P2w" xlink:title="&lt;TABLE&gt;">
<polygon fill="none" stroke="#0000ff" stroke-dasharray="1,5" points="437,-138.9117 307,-138.9117 307,-102.9117 437,-102.9117 437,-138.9117"/>
<text text-anchor="start" x="345.2266" y="-126.5117" font-family="Times,serif" font-size="8.00" fill="#000000">bridge to side 45</text>
<text text-anchor="start" x="319.1387" y="-118.5117" font-family="Times,serif" font-size="8.00" fill="#000000">far leg reaches over and traps leg</text>
<text text-anchor="start" x="314.7891" y="-110.5117" font-family="Times,serif" font-size="8.00" fill="#000000">lift leg and push down to half guard</text>
</a>
</g>
</g>
<!-- mounted&#45;&gt;halfguardd -->
<g id="edge8" class="edge">
<title>mounted&#45;&gt;halfguardd</title>
<path fill="none" stroke="#000000" d="M351.6742,-175.1139C354.6695,-167.1263 358.2733,-157.5162 361.6092,-148.6204"/>
<polygon fill="#000000" stroke="#000000" points="364.9809,-149.5971 365.2151,-139.0048 358.4266,-147.1392 364.9809,-149.5971"/>
</g>
<!-- side_controledd -->
<g id="node13" class="node">
<title>side_controledd</title>
<g id="a_node13"><a xlink:href="https://www.youtube.com/watch?v=S_vtppaNxoc" xlink:title="&lt;TABLE&gt;">
<polygon fill="none" stroke="#0000ff" stroke-dasharray="1,5" points="696.5,-138.9117 455.5,-138.9117 455.5,-102.9117 696.5,-102.9117 696.5,-138.9117"/>
<text text-anchor="start" x="463.6523" y="-126.5117" font-family="Times,serif" font-size="8.00" fill="#000000">wrist bone hip and neck, bridge make space, put knee in recover guard</text>
<text text-anchor="start" x="482.8594" y="-118.5117" font-family="Times,serif" font-size="8.00" fill="#000000">trap far leg oponent going to mount and back to half gurad</text>
<text text-anchor="start" x="499.8887" y="-110.5117" font-family="Times,serif" font-size="8.00" fill="#000000">push away, under hook, to knees and double leg</text>
</a>
</g>
</g>
<!-- side_controled&#45;&gt;side_controledd -->
<g id="edge10" class="edge">
<title>side_controled&#45;&gt;side_controledd</title>
<path fill="none" stroke="#000000" d="M491.2362,-176.3934C505.5792,-167.0053 523.7866,-155.0878 539.6473,-144.7062"/>
<polygon fill="#000000" stroke="#000000" points="541.7277,-147.5276 548.1779,-139.1225 537.8941,-141.6707 541.7277,-147.5276"/>
</g>
<!-- knee_on_bellyd -->
<g id="node10" class="node">
<title>knee_on_bellyd</title>
<g id="a_node10"><a xlink:href="https://www.youtube.com/watch?v=S_vtppaNxoc" xlink:title="&lt;TABLE&gt;">
<polygon fill="none" stroke="#0000ff" stroke-dasharray="1,5" points="769,-138.9117 715,-138.9117 715,-102.9117 769,-102.9117 769,-138.9117"/>
</a>
</g>
</g>
<!-- knee_on_belly&#45;&gt;knee_on_bellyd -->
<g id="edge7" class="edge">
<title>knee_on_belly&#45;&gt;knee_on_bellyd</title>
<path fill="none" stroke="#000000" d="M718.075,-174.743C721.6102,-166.7888 725.836,-157.2807 729.7456,-148.484"/>
<polygon fill="#000000" stroke="#000000" points="732.9532,-149.8846 733.8163,-139.325 726.5565,-147.0416 732.9532,-149.8846"/>
</g>
<!-- halfguard -->
<g id="node12" class="node">
<title>halfguard</title>
<ellipse fill="#ff0000" stroke="#ff0000" cx="491" cy="-41.4558" rx="46.4045" ry="18"/>
<text text-anchor="middle" x="491" y="-37.2558" font-family="Times,serif" font-size="14.00" fill="#000000">half guard</text>
</g>
<!-- halfguardd&#45;&gt;halfguard -->
<g id="edge9" class="edge">
<title>halfguardd&#45;&gt;halfguard</title>
<path fill="none" stroke="#000000" d="M399.0029,-102.8819C416.7626,-91.0239 440.0942,-75.4455 458.8168,-62.9445"/>
<polygon fill="#000000" stroke="#000000" points="460.9519,-65.7274 467.3249,-57.2636 457.0648,-59.9058 460.9519,-65.7274"/>
</g>
<!-- triangle -->
<g id="node17" class="node">
<title>triangle</title>
<ellipse fill="#add8e6" stroke="#add8e6" cx="84" cy="-120.9117" rx="37.2334" ry="18"/>
<text text-anchor="middle" x="84" y="-116.7117" font-family="Times,serif" font-size="14.00" fill="#000000">triangle</text>
</g>
<!-- guard&#45;&gt;triangle -->
<g id="edge14" class="edge">
<title>guard&#45;&gt;triangle</title>
<path fill="none" stroke="#000000" d="M232.1543,-181.6919C227.1664,-179.4053 221.9262,-177.0472 217,-174.9117 185.3338,-161.1845 149.0051,-146.5059 122.3261,-135.9226"/>
<polygon fill="#000000" stroke="#000000" points="123.5465,-132.6415 112.9601,-132.2182 120.9719,-139.1509 123.5465,-132.6415"/>
</g>
<!-- armbar -->
<g id="node18" class="node">
<title>armbar</title>
<ellipse fill="#add8e6" stroke="#add8e6" cx="174" cy="-120.9117" rx="35.2956" ry="18"/>
<text text-anchor="middle" x="174" y="-116.7117" font-family="Times,serif" font-size="14.00" fill="#000000">armbar</text>
</g>
<!-- guard&#45;&gt;armbar -->
<g id="edge15" class="edge">
<title>guard&#45;&gt;armbar</title>
<path fill="none" stroke="#000000" d="M239.0095,-177.9932C227.5882,-167.9648 212.329,-154.5664 199.4644,-143.2707"/>
<polygon fill="#000000" stroke="#000000" points="201.6434,-140.5262 191.8196,-136.5582 197.0247,-145.7863 201.6434,-140.5262"/>
</g>
<!-- sweepSissor -->
<g id="node19" class="node">
<title>sweepSissor</title>
<g id="a_node19"><a xlink:href="https://www.youtube.com/watch?v=HHs1ftjayUw" xlink:title="&lt;TABLE&gt;">
<polygon fill="none" stroke="#0000ff" stroke-dasharray="1,5" points="288.5,-138.9117 227.5,-138.9117 227.5,-102.9117 288.5,-102.9117 288.5,-138.9117"/>
<text text-anchor="start" x="238.3906" y="-126.5117" font-family="Times,serif" font-size="8.00" fill="#000000">sissor sweep</text>
<text text-anchor="start" x="237.2852" y="-118.5117" font-family="Times,serif" font-size="8.00" fill="#000000">xande Sweep</text>
<text text-anchor="start" x="235.5039" y="-110.5117" font-family="Times,serif" font-size="8.00" fill="#000000">Flower Sweep</text>
</a>
</g>
</g>
<!-- guard&#45;&gt;sweepSissor -->
<g id="edge16" class="edge">
<title>guard&#45;&gt;sweepSissor</title>
<path fill="none" stroke="#000000" d="M256.5047,-174.743C256.7186,-167.0426 256.9729,-157.886 257.2106,-149.3283"/>
<polygon fill="#000000" stroke="#000000" points="260.7094,-149.4183 257.4885,-139.325 253.7121,-149.2239 260.7094,-149.4183"/>
</g>
<!-- ltr -->
<g id="node21" class="node">
<title>ltr</title>
<ellipse fill="none" stroke="#000000" cx="97" cy="-41.4558" rx="81.3156" ry="25.4118"/>
<text text-anchor="start" x="51.8931" y="-44.2558" font-family="Times,serif" font-size="14.00" fill="#000000">bicept split with</text>
<text text-anchor="start" x="47.436" y="-30.2558" font-family="Times,serif" font-size="14.00" fill="#000000"> arm leg triangled</text>
</g>
<!-- armbar&#45;&gt;ltr -->
<g id="edge18" class="edge">
<title>armbar&#45;&gt;ltr</title>
<path fill="none" stroke="#000000" d="M158.0456,-104.4484C149.3126,-95.4369 138.19,-83.9596 127.8377,-73.2771"/>
<polygon fill="#000000" stroke="#000000" points="130.3053,-70.7941 120.8327,-66.0486 125.2785,-75.6656 130.3053,-70.7941"/>
</g>
<!-- choke -->
<g id="node22" class="node">
<title>choke</title>
<ellipse fill="none" stroke="#000000" cx="270" cy="-41.4558" rx="73.3134" ry="25.4118"/>
<text text-anchor="start" x="237.9326" y="-44.2558" font-family="Times,serif" font-size="14.00" fill="#000000">lapel choke</text>
<text text-anchor="start" x="226.2705" y="-30.2558" font-family="Times,serif" font-size="14.00" fill="#000000"> head above leg</text>
</g>
<!-- armbar&#45;&gt;choke -->
<g id="edge19" class="edge">
<title>armbar&#45;&gt;choke</title>
<path fill="none" stroke="#000000" d="M192.5098,-105.5918C204.0785,-96.0167 219.3788,-83.3533 233.326,-71.8096"/>
<polygon fill="#000000" stroke="#000000" points="235.8711,-74.2465 241.3431,-65.1741 231.4078,-68.8539 235.8711,-74.2465"/>
</g>
<!-- mounte1 -->
<g id="node20" class="node">
<title>mounte1</title>
<ellipse fill="none" stroke="#00ff00" stroke-dasharray="1,5" cx="394" cy="-41.4558" rx="32.9168" ry="18"/>
<text text-anchor="middle" x="394" y="-37.2558" font-family="Times,serif" font-size="14.00" fill="#000000">mount</text>
</g>
<!-- sweepSissor&#45;&gt;mounte1 -->
<g id="edge17" class="edge">
<title>sweepSissor&#45;&gt;mounte1</title>
<path fill="none" stroke="#000000" d="M288.5853,-103.5818C307.0182,-93.078 330.9291,-79.3471 352,-66.9117 355.6348,-64.7665 359.4342,-62.4992 363.1987,-60.2372"/>
<polygon fill="#000000" stroke="#000000" points="365.0737,-63.1936 371.8253,-55.0287 361.4556,-57.2012 365.0737,-63.1936"/>
</g>
</g>
</svg>
