<?xml version="1.0" encoding="UTF-8" standalone="no"?>
<!DOCTYPE svg PUBLIC "-//W3C//DTD SVG 1.1//EN"
 "http://www.w3.org/Graphics/SVG/1.1/DTD/svg11.dtd">
<!-- Generated by graphviz version 2.40.1 (20161225.0304)
 -->
<!-- Title: G Pages: 1 -->
<svg width="948pt" height="379pt"
 viewBox="0.00 0.00 948.00 378.91" xmlns="http://www.w3.org/2000/svg" xmlns:xlink="http://www.w3.org/1999/xlink">
<g id="graph0" class="graph" transform="scale(1 1) rotate(0) translate(4 374.9117)">
<title>G</title>
<polygon fill="#ffffff" stroke="transparent" points="-4,4 -4,-374.9117 944,-374.9117 944,4 -4,4"/>
<g id="clust1" class="cluster">
<title>cluster0</title>
<polygon fill="#ffc0cb" stroke="#ffc0cb" points="8,-8 8,-362.9117 932,-362.9117 932,-8 8,-8"/>
</g>
<!-- sweepsummary -->
<g id="node1" class="node">
<title>sweepsummary</title>
<g id="a_node1"><a xlink:href="https://www.youtube.com/watch?v=cxc6uoaso7Q" xlink:title="&lt;TABLE&gt;">
<polygon fill="none" stroke="#ffa500" points="888.5,-354.9117 801.5,-354.9117 801.5,-318.9117 888.5,-318.9117 888.5,-354.9117"/>
<text text-anchor="start" x="809.5308" y="-333.9117" font-family="Times,serif" font-size="10.00" fill="#000000">Sweeps Summary</text>
</a>
</g>
</g>
<!-- omoplata1 -->
<g id="node2" class="node">
<title>omoplata1</title>
<g id="a_node2"><a xlink:href="https://www.youtube.com/watch?v=tfvEGtSCIRI" xlink:title="&lt;TABLE&gt;">
<polygon fill="none" stroke="#ffa500" points="646.5,-354.9117 587.5,-354.9117 587.5,-318.9117 646.5,-318.9117 646.5,-354.9117"/>
<text text-anchor="start" x="595.8374" y="-333.9117" font-family="Times,serif" font-size="10.00" fill="#000000">Omoplatas</text>
</a>
</g>
</g>
<!-- standing -->
<g id="node3" class="node">
<title>standing</title>
<ellipse fill="#c0c0c0" stroke="#c0c0c0" cx="256" cy="-336.9117" rx="40.149" ry="18"/>
<text text-anchor="middle" x="256" y="-332.7117" font-family="Times,serif" font-size="14.00" fill="#000000">standing</text>
</g>
<!-- take_down -->
<g id="node4" class="node">
<title>take_down</title>
<ellipse fill="#add8e6" stroke="#add8e6" cx="188" cy="-264.9117" rx="48.8187" ry="18"/>
<text text-anchor="middle" x="188" y="-260.7117" font-family="Times,serif" font-size="14.00" fill="#000000">take_down</text>
</g>
<!-- standing&#45;&gt;take_down -->
<g id="edge1" class="edge">
<title>standing&#45;&gt;take_down</title>
<path fill="none" stroke="#000000" d="M240.2285,-320.2125C231.5995,-311.0758 220.7463,-299.5843 211.1722,-289.447"/>
<polygon fill="#000000" stroke="#000000" points="213.569,-286.8873 204.1582,-282.0203 208.4799,-291.6937 213.569,-286.8873"/>
</g>
<!-- taken_down -->
<g id="node5" class="node">
<title>taken_down</title>
<ellipse fill="#ff0000" stroke="#ff0000" cx="545" cy="-264.9117" rx="53.1625" ry="18"/>
<text text-anchor="middle" x="545" y="-260.7117" font-family="Times,serif" font-size="14.00" fill="#000000">taken_down</text>
</g>
<!-- standing&#45;&gt;taken_down -->
<g id="edge2" class="edge">
<title>standing&#45;&gt;taken_down</title>
<path fill="none" stroke="#000000" d="M291.1481,-328.1551C341.203,-315.6846 433.4165,-292.711 491.8488,-278.1535"/>
<polygon fill="#000000" stroke="#000000" points="492.7788,-281.5289 501.6361,-275.7152 491.0866,-274.7365 492.7788,-281.5289"/>
</g>
<!-- mount -->
<g id="node15" class="node">
<title>mount</title>
<ellipse fill="#add8e6" stroke="#add8e6" cx="49" cy="-192.9117" rx="32.9168" ry="18"/>
<text text-anchor="middle" x="49" y="-188.7117" font-family="Times,serif" font-size="14.00" fill="#000000">mount</text>
</g>
<!-- take_down&#45;&gt;mount -->
<g id="edge12" class="edge">
<title>take_down&#45;&gt;mount</title>
<path fill="none" stroke="#000000" d="M159.5359,-250.1677C137.0979,-238.5451 105.7694,-222.3174 82.1922,-210.1048"/>
<polygon fill="#000000" stroke="#000000" points="83.741,-206.9654 73.2517,-205.4737 80.5213,-213.181 83.741,-206.9654"/>
</g>
<!-- side_control -->
<g id="node16" class="node">
<title>side_control</title>
<ellipse fill="#add8e6" stroke="#add8e6" cx="154" cy="-192.9117" rx="53.6471" ry="18"/>
<text text-anchor="middle" x="154" y="-188.7117" font-family="Times,serif" font-size="14.00" fill="#000000">side_control</text>
</g>
<!-- take_down&#45;&gt;side_control -->
<g id="edge13" class="edge">
<title>take_down&#45;&gt;side_control</title>
<path fill="none" stroke="#000000" d="M179.5955,-247.1139C175.7132,-238.8927 171.0194,-228.9527 166.717,-219.8418"/>
<polygon fill="#000000" stroke="#000000" points="169.8606,-218.3022 162.4256,-210.7542 163.5309,-221.2913 169.8606,-218.3022"/>
</g>
<!-- guard -->
<g id="node17" class="node">
<title>guard</title>
<ellipse fill="#add8e6" stroke="#add8e6" cx="256" cy="-192.9117" rx="30.4862" ry="18"/>
<text text-anchor="middle" x="256" y="-188.7117" font-family="Times,serif" font-size="14.00" fill="#000000">guard</text>
</g>
<!-- take_down&#45;&gt;guard -->
<g id="edge14" class="edge">
<title>take_down&#45;&gt;guard</title>
<path fill="none" stroke="#000000" d="M204.1151,-247.8487C213.0034,-238.4376 224.1713,-226.6127 233.8671,-216.3466"/>
<polygon fill="#000000" stroke="#000000" points="236.6106,-218.539 240.9323,-208.8657 231.5215,-213.7327 236.6106,-218.539"/>
</g>
<!-- mounted -->
<g id="node6" class="node">
<title>mounted</title>
<ellipse fill="#ff0000" stroke="#ff0000" cx="385" cy="-192.9117" rx="41.1093" ry="18"/>
<text text-anchor="middle" x="385" y="-188.7117" font-family="Times,serif" font-size="14.00" fill="#000000">mounted</text>
</g>
<!-- taken_down&#45;&gt;mounted -->
<g id="edge3" class="edge">
<title>taken_down&#45;&gt;mounted</title>
<path fill="none" stroke="#000000" d="M512.6216,-250.3414C486.7282,-238.6894 450.3698,-222.3281 423.0809,-210.0481"/>
<polygon fill="#000000" stroke="#000000" points="424.3943,-206.8011 413.8387,-205.8891 421.5217,-213.1846 424.3943,-206.8011"/>
</g>
<!-- side_controled -->
<g id="node7" class="node">
<title>side_controled</title>
<ellipse fill="#ff0000" stroke="#ff0000" cx="545" cy="-192.9117" rx="62.3407" ry="18"/>
<text text-anchor="middle" x="545" y="-188.7117" font-family="Times,serif" font-size="14.00" fill="#000000">side_controled</text>
</g>
<!-- taken_down&#45;&gt;side_controled -->
<g id="edge4" class="edge">
<title>taken_down&#45;&gt;side_controled</title>
<path fill="none" stroke="#000000" d="M545,-246.743C545,-239.0426 545,-229.886 545,-221.3283"/>
<polygon fill="#000000" stroke="#000000" points="548.5001,-221.3249 545,-211.325 541.5001,-221.325 548.5001,-221.3249"/>
</g>
<!-- in_guard -->
<g id="node8" class="node">
<title>in_guard</title>
<ellipse fill="#ff0000" stroke="#ff0000" cx="667" cy="-192.9117" rx="41.5852" ry="18"/>
<text text-anchor="middle" x="667" y="-188.7117" font-family="Times,serif" font-size="14.00" fill="#000000">in_guard</text>
</g>
<!-- taken_down&#45;&gt;in_guard -->
<g id="edge5" class="edge">
<title>taken_down&#45;&gt;in_guard</title>
<path fill="none" stroke="#000000" d="M571.7734,-249.111C589.9391,-238.3903 614.0923,-224.1359 633.5277,-212.6658"/>
<polygon fill="#000000" stroke="#000000" points="635.5311,-215.5476 642.3643,-207.4508 631.9733,-209.5192 635.5311,-215.5476"/>
</g>
<!-- knee_on_belly -->
<g id="node9" class="node">
<title>knee_on_belly</title>
<ellipse fill="#ff0000" stroke="#ff0000" cx="825" cy="-192.9117" rx="62.3407" ry="18"/>
<text text-anchor="middle" x="825" y="-188.7117" font-family="Times,serif" font-size="14.00" fill="#000000">knee_on_belly</text>
</g>
<!-- taken_down&#45;&gt;knee_on_belly -->
<g id="edge6" class="edge">
<title>taken_down&#45;&gt;knee_on_belly</title>
<path fill="none" stroke="#000000" d="M587.526,-253.9764C635.8171,-241.5587 714.8258,-221.2422 768.3211,-207.4863"/>
<polygon fill="#000000" stroke="#000000" points="769.5181,-210.7924 778.3313,-204.9122 767.7747,-204.013 769.5181,-210.7924"/>
</g>
<!-- halfguardd -->
<g id="node11" class="node">
<title>halfguardd</title>
<g id="a_node11"><a xlink:href="https://www.youtube.com/watch?v=q2OAJF__P2w" xlink:title="&lt;TABLE&gt;">
<polygon fill="none" stroke="#0000ff" stroke-dasharray="1,5" points="406,-138.9117 276,-138.9117 276,-102.9117 406,-102.9117 406,-138.9117"/>
<text text-anchor="start" x="314.2266" y="-126.5117" font-family="Times,serif" font-size="8.00" fill="#000000">bridge to side 45</text>
<text text-anchor="start" x="288.1387" y="-118.5117" font-family="Times,serif" font-size="8.00" fill="#000000">far leg reaches over and traps leg</text>
<text text-anchor="start" x="283.7891" y="-110.5117" font-family="Times,serif" font-size="8.00" fill="#000000">lift leg and push down to half guard</text>
</a>
</g>
</g>
<!-- mounted&#45;&gt;halfguardd -->
<g id="edge8" class="edge">
<title>mounted&#45;&gt;halfguardd</title>
<path fill="none" stroke="#000000" d="M374.3488,-175.4825C369.222,-167.0931 362.9629,-156.8509 357.2577,-147.5152"/>
<polygon fill="#000000" stroke="#000000" points="360.2136,-145.64 352.0126,-138.9323 354.2406,-149.2902 360.2136,-145.64"/>
</g>
<!-- side_controledd -->
<g id="node13" class="node">
<title>side_controledd</title>
<g id="a_node13"><a xlink:href="https://www.youtube.com/watch?v=S_vtppaNxoc" xlink:title="&lt;TABLE&gt;">
<polygon fill="none" stroke="#0000ff" stroke-dasharray="1,5" points="665.5,-138.9117 424.5,-138.9117 424.5,-102.9117 665.5,-102.9117 665.5,-138.9117"/>
<text text-anchor="start" x="432.6523" y="-126.5117" font-family="Times,serif" font-size="8.00" fill="#000000">wrist bone hip and neck, bridge make space, put knee in recover guard</text>
<text text-anchor="start" x="451.8594" y="-118.5117" font-family="Times,serif" font-size="8.00" fill="#000000">trap far leg oponent going to mount and back to half gurad</text>
<text text-anchor="start" x="453.1191" y="-110.5117" font-family="Times,serif" font-size="8.00" fill="#000000">push away, head arm under hook, to knees and double leg</text>
</a>
</g>
</g>
<!-- side_controled&#45;&gt;side_controledd -->
<g id="edge10" class="edge">
<title>side_controled&#45;&gt;side_controledd</title>
<path fill="none" stroke="#000000" d="M545,-174.743C545,-167.0426 545,-157.886 545,-149.3283"/>
<polygon fill="#000000" stroke="#000000" points="548.5001,-149.3249 545,-139.325 541.5001,-149.325 548.5001,-149.3249"/>
</g>
<!-- side_controledd2 -->
<g id="node14" class="node">
<title>side_controledd2</title>
<g id="a_node14"><a xlink:href="https://www.youtube.com/watch?v=6ZKFobk8vOQ" xlink:title="&lt;TABLE&gt;">
<polygon fill="none" stroke="#0000ff" stroke-dasharray="1,5" points="852,-138.9117 684,-138.9117 684,-102.9117 852,-102.9117 852,-138.9117"/>
<text text-anchor="start" x="691.502" y="-126.5117" font-family="Times,serif" font-size="8.00" fill="#000000">push away, body arm under hook, control tricep</text>
<text text-anchor="start" x="726.1191" y="-118.5117" font-family="Times,serif" font-size="8.00" fill="#000000">1 &#45; spin under using tricep</text>
<text text-anchor="start" x="704.1289" y="-110.5117" font-family="Times,serif" font-size="8.00" fill="#000000">2 &#45; feet walks away from legs and sit up</text>
</a>
</g>
</g>
<!-- side_controled&#45;&gt;side_controledd2 -->
<g id="edge11" class="edge">
<title>side_controled&#45;&gt;side_controledd2</title>
<path fill="none" stroke="#000000" d="M586.683,-179.4535C619.2009,-168.9545 664.9754,-154.1752 702.3953,-142.0935"/>
<polygon fill="#000000" stroke="#000000" points="703.7706,-145.3274 712.2115,-138.9241 701.6198,-138.666 703.7706,-145.3274"/>
</g>
<!-- knee_on_bellyd -->
<g id="node10" class="node">
<title>knee_on_bellyd</title>
<g id="a_node10"><a xlink:href="https://www.youtube.com/watch?v=S_vtppaNxoc" xlink:title="&lt;TABLE&gt;">
<polygon fill="none" stroke="#0000ff" stroke-dasharray="1,5" points="924,-138.9117 870,-138.9117 870,-102.9117 924,-102.9117 924,-138.9117"/>
</a>
</g>
</g>
<!-- knee_on_belly&#45;&gt;knee_on_bellyd -->
<g id="edge7" class="edge">
<title>knee_on_belly&#45;&gt;knee_on_bellyd</title>
<path fill="none" stroke="#000000" d="M842.4292,-175.4825C851.251,-166.6607 862.1216,-155.7901 871.8326,-146.0791"/>
<polygon fill="#000000" stroke="#000000" points="874.3832,-148.4783 878.9794,-138.9323 869.4334,-143.5285 874.3832,-148.4783"/>
</g>
<!-- halfguard -->
<g id="node12" class="node">
<title>halfguard</title>
<ellipse fill="#ff0000" stroke="#ff0000" cx="491" cy="-41.4558" rx="46.4045" ry="18"/>
<text text-anchor="middle" x="491" y="-37.2558" font-family="Times,serif" font-size="14.00" fill="#000000">half guard</text>
</g>
<!-- halfguardd&#45;&gt;halfguard -->
<g id="edge9" class="edge">
<title>halfguardd&#45;&gt;halfguard</title>
<path fill="none" stroke="#000000" d="M375.0373,-102.8819C398.7977,-90.2959 430.4702,-73.5188 454.7105,-60.6786"/>
<polygon fill="#000000" stroke="#000000" points="456.4064,-63.741 463.6049,-55.9672 453.1298,-57.5552 456.4064,-63.741"/>
</g>
<!-- triangle -->
<g id="node18" class="node">
<title>triangle</title>
<ellipse fill="#add8e6" stroke="#add8e6" cx="53" cy="-120.9117" rx="37.2334" ry="18"/>
<text text-anchor="middle" x="53" y="-116.7117" font-family="Times,serif" font-size="14.00" fill="#000000">triangle</text>
</g>
<!-- guard&#45;&gt;triangle -->
<g id="edge15" class="edge">
<title>guard&#45;&gt;triangle</title>
<path fill="none" stroke="#000000" d="M232.2948,-181.3468C227.2967,-179.0852 222.0169,-176.8245 217,-174.9117 165.7668,-155.3777 150.7909,-156.9151 99,-138.9117 96.4307,-138.0185 93.7919,-137.0704 91.1403,-136.0946"/>
<polygon fill="#000000" stroke="#000000" points="92.1749,-132.7442 81.5831,-132.4887 89.7037,-139.2935 92.1749,-132.7442"/>
</g>
<!-- armbar -->
<g id="node19" class="node">
<title>armbar</title>
<ellipse fill="#add8e6" stroke="#add8e6" cx="143" cy="-120.9117" rx="35.2956" ry="18"/>
<text text-anchor="middle" x="143" y="-116.7117" font-family="Times,serif" font-size="14.00" fill="#000000">armbar</text>
</g>
<!-- guard&#45;&gt;armbar -->
<g id="edge16" class="edge">
<title>guard&#45;&gt;armbar</title>
<path fill="none" stroke="#000000" d="M235.2741,-179.7058C218.0351,-168.7217 193.2481,-152.9282 173.7045,-140.4756"/>
<polygon fill="#000000" stroke="#000000" points="175.4542,-137.4404 165.1398,-135.0185 171.6926,-143.3439 175.4542,-137.4404"/>
</g>
<!-- sweepSissor -->
<g id="node20" class="node">
<title>sweepSissor</title>
<g id="a_node20"><a xlink:href="https://www.youtube.com/watch?v=HHs1ftjayUw" xlink:title="&lt;TABLE&gt;">
<polygon fill="none" stroke="#0000ff" stroke-dasharray="1,5" points="257.5,-138.9117 196.5,-138.9117 196.5,-102.9117 257.5,-102.9117 257.5,-138.9117"/>
<text text-anchor="start" x="207.3906" y="-126.5117" font-family="Times,serif" font-size="8.00" fill="#000000">sissor sweep</text>
<text text-anchor="start" x="206.2852" y="-118.5117" font-family="Times,serif" font-size="8.00" fill="#000000">xande Sweep</text>
<text text-anchor="start" x="204.5039" y="-110.5117" font-family="Times,serif" font-size="8.00" fill="#000000">Flower Sweep</text>
</a>
</g>
</g>
<!-- guard&#45;&gt;sweepSissor -->
<g id="edge17" class="edge">
<title>guard&#45;&gt;sweepSissor</title>
<path fill="none" stroke="#000000" d="M248.8315,-175.1139C245.5796,-167.0404 241.6602,-157.3093 238.045,-148.3337"/>
<polygon fill="#000000" stroke="#000000" points="241.2702,-146.973 234.2875,-139.0048 234.7771,-149.5883 241.2702,-146.973"/>
</g>
<!-- ltr -->
<g id="node22" class="node">
<title>ltr</title>
<ellipse fill="none" stroke="#000000" cx="97" cy="-41.4558" rx="81.3156" ry="25.4118"/>
<text text-anchor="start" x="51.8931" y="-44.2558" font-family="Times,serif" font-size="14.00" fill="#000000">bicept split with</text>
<text text-anchor="start" x="47.436" y="-30.2558" font-family="Times,serif" font-size="14.00" fill="#000000"> arm leg triangled</text>
</g>
<!-- armbar&#45;&gt;ltr -->
<g id="edge19" class="edge">
<title>armbar&#45;&gt;ltr</title>
<path fill="none" stroke="#000000" d="M132.7911,-103.2779C128.0085,-95.0169 122.1441,-84.8872 116.5569,-75.2365"/>
<polygon fill="#000000" stroke="#000000" points="119.5822,-73.4764 111.5428,-66.5757 113.5242,-76.9836 119.5822,-73.4764"/>
</g>
<!-- choke -->
<g id="node23" class="node">
<title>choke</title>
<ellipse fill="none" stroke="#000000" cx="270" cy="-41.4558" rx="73.3134" ry="25.4118"/>
<text text-anchor="start" x="237.9326" y="-44.2558" font-family="Times,serif" font-size="14.00" fill="#000000">lapel choke</text>
<text text-anchor="start" x="226.2705" y="-30.2558" font-family="Times,serif" font-size="14.00" fill="#000000"> head above leg</text>
</g>
<!-- armbar&#45;&gt;choke -->
<g id="edge20" class="edge">
<title>armbar&#45;&gt;choke</title>
<path fill="none" stroke="#000000" d="M165.4127,-106.8895C182.1113,-96.4422 205.4531,-81.8387 225.85,-69.0777"/>
<polygon fill="#000000" stroke="#000000" points="227.762,-72.0101 234.3832,-63.739 224.0493,-66.0758 227.762,-72.0101"/>
</g>
<!-- mounte1 -->
<g id="node21" class="node">
<title>mounte1</title>
<ellipse fill="none" stroke="#00ff00" stroke-dasharray="1,5" cx="394" cy="-41.4558" rx="32.9168" ry="18"/>
<text text-anchor="middle" x="394" y="-37.2558" font-family="Times,serif" font-size="14.00" fill="#000000">mount</text>
</g>
<!-- sweepSissor&#45;&gt;mounte1 -->
<g id="edge18" class="edge">
<title>sweepSissor&#45;&gt;mounte1</title>
<path fill="none" stroke="#000000" d="M257.5438,-107.083C260.7326,-105.6644 263.9294,-104.2526 267,-102.9117 304.5976,-86.4928 315.4736,-85.5927 352,-66.9117 355.843,-64.9462 359.8086,-62.7626 363.698,-60.524"/>
<polygon fill="#000000" stroke="#000000" points="365.7267,-63.3901 372.5413,-55.2775 362.155,-57.3698 365.7267,-63.3901"/>
</g>
</g>
</svg>
