<?xml version="1.0" encoding="UTF-8" standalone="no"?>
<!DOCTYPE svg PUBLIC "-//W3C//DTD SVG 1.1//EN"
 "http://www.w3.org/Graphics/SVG/1.1/DTD/svg11.dtd">
<!-- Generated by graphviz version 2.40.1 (20161225.0304)
 -->
<!-- Title: G Pages: 1 -->
<svg width="1055pt" height="490pt"
 viewBox="0.00 0.00 1054.82 490.00" xmlns="http://www.w3.org/2000/svg" xmlns:xlink="http://www.w3.org/1999/xlink">
<g id="graph0" class="graph" transform="scale(1 1) rotate(0) translate(4 486)">
<title>G</title>
<polygon fill="#ffffff" stroke="transparent" points="-4,4 -4,-486 1050.8177,-486 1050.8177,4 -4,4"/>
<g id="clust1" class="cluster">
<title>cluster0</title>
<polygon fill="#ffc0cb" stroke="#ffc0cb" points="8,-8 8,-474 1038.8177,-474 1038.8177,-8 8,-8"/>
</g>
<!-- sweepsummary -->
<g id="node1" class="node">
<title>sweepsummary</title>
<g id="a_node1"><a xlink:href="https://www.youtube.com/watch?v=cxc6uoaso7Q" xlink:title="&lt;TABLE&gt;">
<polygon fill="none" stroke="#ffa500" points="103,-450 16,-450 16,-414 103,-414 103,-450"/>
<text text-anchor="start" x="24.0308" y="-429" font-family="Times,serif" font-size="10.00" fill="#000000">Sweeps Summary</text>
</a>
</g>
</g>
<!-- omoplata1 -->
<g id="node2" class="node">
<title>omoplata1</title>
<g id="a_node2"><a xlink:href="https://www.youtube.com/watch?v=tfvEGtSCIRI" xlink:title="&lt;TABLE&gt;">
<polygon fill="none" stroke="#ffa500" points="89,-365 30,-365 30,-329 89,-329 89,-365"/>
<text text-anchor="start" x="38.3374" y="-344" font-family="Times,serif" font-size="10.00" fill="#000000">Omoplatas</text>
</a>
</g>
</g>
<!-- standing -->
<g id="node3" class="node">
<title>standing</title>
<ellipse fill="#c0c0c0" stroke="#c0c0c0" cx="59.5" cy="-230" rx="40.149" ry="18"/>
<text text-anchor="middle" x="59.5" y="-225.8" font-family="Times,serif" font-size="14.00" fill="#000000">standing</text>
</g>
<!-- take_down -->
<g id="node4" class="node">
<title>take_down</title>
<ellipse fill="#add8e6" stroke="#add8e6" cx="192.331" cy="-115" rx="48.8187" ry="18"/>
<text text-anchor="middle" x="192.331" y="-110.8" font-family="Times,serif" font-size="14.00" fill="#000000">take_down</text>
</g>
<!-- standing&#45;&gt;take_down -->
<g id="edge1" class="edge">
<title>standing&#45;&gt;take_down</title>
<path fill="none" stroke="#000000" d="M77.9696,-214.0097C100.7097,-194.3222 139.5072,-160.7328 165.5256,-138.2071"/>
<polygon fill="#000000" stroke="#000000" points="167.8887,-140.7907 173.1581,-131.5992 163.3069,-135.4985 167.8887,-140.7907"/>
</g>
<!-- taken_down -->
<g id="node5" class="node">
<title>taken_down</title>
<ellipse fill="#ff0000" stroke="#ff0000" cx="192.331" cy="-340" rx="53.1625" ry="18"/>
<text text-anchor="middle" x="192.331" y="-335.8" font-family="Times,serif" font-size="14.00" fill="#000000">taken_down</text>
</g>
<!-- standing&#45;&gt;taken_down -->
<g id="edge2" class="edge">
<title>standing&#45;&gt;taken_down</title>
<path fill="none" stroke="#000000" d="M78.8148,-245.9949C101.2795,-264.5985 138.5567,-295.4685 164.2282,-316.7275"/>
<polygon fill="#000000" stroke="#000000" points="162.1875,-319.5819 172.1218,-323.2644 166.6522,-314.1906 162.1875,-319.5819"/>
</g>
<!-- mount -->
<g id="node15" class="node">
<title>mount</title>
<ellipse fill="#add8e6" stroke="#add8e6" cx="343.8321" cy="-34" rx="32.9168" ry="18"/>
<text text-anchor="middle" x="343.8321" y="-29.8" font-family="Times,serif" font-size="14.00" fill="#000000">mount</text>
</g>
<!-- take_down&#45;&gt;mount -->
<g id="edge12" class="edge">
<title>take_down&#45;&gt;mount</title>
<path fill="none" stroke="#000000" d="M216.4709,-99.1974C234.1649,-87.9157 258.9586,-72.725 281.662,-61 290.0312,-56.6778 299.245,-52.4187 307.9569,-48.6059"/>
<polygon fill="#000000" stroke="#000000" points="309.3398,-51.8212 317.1497,-44.6619 306.5797,-45.3883 309.3398,-51.8212"/>
</g>
<!-- side_control -->
<g id="node16" class="node">
<title>side_control</title>
<ellipse fill="#add8e6" stroke="#add8e6" cx="343.8321" cy="-88" rx="53.6471" ry="18"/>
<text text-anchor="middle" x="343.8321" y="-83.8" font-family="Times,serif" font-size="14.00" fill="#000000">side_control</text>
</g>
<!-- take_down&#45;&gt;side_control -->
<g id="edge13" class="edge">
<title>take_down&#45;&gt;side_control</title>
<path fill="none" stroke="#000000" d="M236.5587,-107.1179C252.0368,-104.3594 269.652,-101.2201 286.0706,-98.2941"/>
<polygon fill="#000000" stroke="#000000" points="286.8783,-101.7054 296.109,-96.505 285.65,-94.8139 286.8783,-101.7054"/>
</g>
<!-- guard -->
<g id="node17" class="node">
<title>guard</title>
<ellipse fill="#add8e6" stroke="#add8e6" cx="343.8321" cy="-142" rx="30.4862" ry="18"/>
<text text-anchor="middle" x="343.8321" y="-137.8" font-family="Times,serif" font-size="14.00" fill="#000000">guard</text>
</g>
<!-- take_down&#45;&gt;guard -->
<g id="edge14" class="edge">
<title>take_down&#45;&gt;guard</title>
<path fill="none" stroke="#000000" d="M236.5587,-122.8821C258.0768,-126.717 283.7255,-131.288 304.5469,-134.9987"/>
<polygon fill="#000000" stroke="#000000" points="304.1846,-138.4892 314.6436,-136.7981 305.4128,-131.5978 304.1846,-138.4892"/>
</g>
<!-- mounted -->
<g id="node6" class="node">
<title>mounted</title>
<ellipse fill="#ff0000" stroke="#ff0000" cx="343.8321" cy="-286" rx="41.1093" ry="18"/>
<text text-anchor="middle" x="343.8321" y="-281.8" font-family="Times,serif" font-size="14.00" fill="#000000">mounted</text>
</g>
<!-- taken_down&#45;&gt;mounted -->
<g id="edge3" class="edge">
<title>taken_down&#45;&gt;mounted</title>
<path fill="none" stroke="#000000" d="M229.0052,-326.9281C251.1501,-319.0349 279.4306,-308.9548 302.3841,-300.7734"/>
<polygon fill="#000000" stroke="#000000" points="303.6173,-304.0496 311.8617,-297.3953 301.2671,-297.456 303.6173,-304.0496"/>
</g>
<!-- side_controled -->
<g id="node7" class="node">
<title>side_controled</title>
<ellipse fill="#ff0000" stroke="#ff0000" cx="343.8321" cy="-340" rx="62.3407" ry="18"/>
<text text-anchor="middle" x="343.8321" y="-335.8" font-family="Times,serif" font-size="14.00" fill="#000000">side_controled</text>
</g>
<!-- taken_down&#45;&gt;side_controled -->
<g id="edge4" class="edge">
<title>taken_down&#45;&gt;side_controled</title>
<path fill="none" stroke="#000000" d="M245.7446,-340C254.0721,-340 262.7951,-340 271.4591,-340"/>
<polygon fill="#000000" stroke="#000000" points="271.5755,-343.5001 281.5755,-340 271.5754,-336.5001 271.5755,-343.5001"/>
</g>
<!-- in_guard -->
<g id="node8" class="node">
<title>in_guard</title>
<ellipse fill="#ff0000" stroke="#ff0000" cx="343.8321" cy="-394" rx="41.5852" ry="18"/>
<text text-anchor="middle" x="343.8321" y="-389.8" font-family="Times,serif" font-size="14.00" fill="#000000">in_guard</text>
</g>
<!-- taken_down&#45;&gt;in_guard -->
<g id="edge5" class="edge">
<title>taken_down&#45;&gt;in_guard</title>
<path fill="none" stroke="#000000" d="M229.0052,-353.0719C251.0735,-360.9378 279.235,-370.9754 302.1456,-379.1416"/>
<polygon fill="#000000" stroke="#000000" points="301.0153,-382.4543 311.6099,-382.5149 303.3655,-375.8606 301.0153,-382.4543"/>
</g>
<!-- knee_on_belly -->
<g id="node9" class="node">
<title>knee_on_belly</title>
<ellipse fill="#ff0000" stroke="#ff0000" cx="343.8321" cy="-448" rx="62.3407" ry="18"/>
<text text-anchor="middle" x="343.8321" y="-443.8" font-family="Times,serif" font-size="14.00" fill="#000000">knee_on_belly</text>
</g>
<!-- taken_down&#45;&gt;knee_on_belly -->
<g id="edge6" class="edge">
<title>taken_down&#45;&gt;knee_on_belly</title>
<path fill="none" stroke="#000000" d="M208.0927,-357.3042C224.9627,-375.0578 253.1663,-402.6094 281.662,-421 286.2965,-423.9911 291.3183,-426.792 296.4301,-429.3722"/>
<polygon fill="#000000" stroke="#000000" points="295.1311,-432.6302 305.6643,-433.7714 298.1418,-426.3107 295.1311,-432.6302"/>
</g>
<!-- halfguardd -->
<g id="node11" class="node">
<title>halfguardd</title>
<g id="a_node11"><a xlink:href="https://www.youtube.com/watch?v=q2OAJF__P2w" xlink:title="&lt;TABLE&gt;">
<polygon fill="none" stroke="#0000ff" stroke-dasharray="1,5" points="702.0022,-304 572.0022,-304 572.0022,-268 702.0022,-268 702.0022,-304"/>
<text text-anchor="start" x="610.2288" y="-291.6" font-family="Times,serif" font-size="8.00" fill="#000000">bridge to side 45</text>
<text text-anchor="start" x="584.1409" y="-283.6" font-family="Times,serif" font-size="8.00" fill="#000000">far leg reaches over and traps leg</text>
<text text-anchor="start" x="579.7913" y="-275.6" font-family="Times,serif" font-size="8.00" fill="#000000">lift leg and push down to half guard</text>
</a>
</g>
</g>
<!-- mounted&#45;&gt;halfguardd -->
<g id="edge8" class="edge">
<title>mounted&#45;&gt;halfguardd</title>
<path fill="none" stroke="#000000" d="M384.9049,-286C430.5977,-286 505.3882,-286 561.6653,-286"/>
<polygon fill="#000000" stroke="#000000" points="561.9469,-289.5001 571.9468,-286 561.9468,-282.5001 561.9469,-289.5001"/>
</g>
<!-- side_controledd -->
<g id="node13" class="node">
<title>side_controledd</title>
<g id="a_node13"><a xlink:href="https://www.youtube.com/watch?v=S_vtppaNxoc" xlink:title="&lt;TABLE&gt;">
<polygon fill="none" stroke="#0000ff" stroke-dasharray="1,5" points="757.5022,-358 516.5022,-358 516.5022,-322 757.5022,-322 757.5022,-358"/>
<text text-anchor="start" x="524.6546" y="-345.6" font-family="Times,serif" font-size="8.00" fill="#000000">wrist bone hip and neck, bridge make space, put knee in recover guard</text>
<text text-anchor="start" x="543.8616" y="-337.6" font-family="Times,serif" font-size="8.00" fill="#000000">trap far leg oponent going to mount and back to half gurad</text>
<text text-anchor="start" x="545.1214" y="-329.6" font-family="Times,serif" font-size="8.00" fill="#000000">push away, head arm under hook, to knees and double leg</text>
</a>
</g>
</g>
<!-- side_controled&#45;&gt;side_controledd -->
<g id="edge10" class="edge">
<title>side_controled&#45;&gt;side_controledd</title>
<path fill="none" stroke="#000000" d="M406.006,-340C435.2251,-340 471.2322,-340 506.0494,-340"/>
<polygon fill="#000000" stroke="#000000" points="506.3176,-343.5001 516.3176,-340 506.3175,-336.5001 506.3176,-343.5001"/>
</g>
<!-- side_controledd2 -->
<g id="node14" class="node">
<title>side_controledd2</title>
<g id="a_node14"><a xlink:href="https://www.youtube.com/watch?v=6ZKFobk8vOQ" xlink:title="&lt;TABLE&gt;">
<polygon fill="none" stroke="#0000ff" stroke-dasharray="1,5" points="721.0022,-412 553.0022,-412 553.0022,-376 721.0022,-376 721.0022,-412"/>
<text text-anchor="start" x="560.5042" y="-399.6" font-family="Times,serif" font-size="8.00" fill="#000000">push away, body arm under hook, control tricep</text>
<text text-anchor="start" x="595.1214" y="-391.6" font-family="Times,serif" font-size="8.00" fill="#000000">1 &#45; spin under using tricep</text>
<text text-anchor="start" x="573.1312" y="-383.6" font-family="Times,serif" font-size="8.00" fill="#000000">2 &#45; feet walks away from legs and sit up</text>
</a>
</g>
</g>
<!-- side_controled&#45;&gt;side_controledd2 -->
<g id="edge11" class="edge">
<title>side_controled&#45;&gt;side_controledd2</title>
<path fill="none" stroke="#000000" d="M387.0305,-353.1941C404.0417,-358.0438 423.8232,-363.2583 442.0022,-367 474.4741,-373.6836 510.3351,-379.1787 542.3547,-383.4264"/>
<polygon fill="#000000" stroke="#000000" points="542.2383,-386.9407 552.6066,-384.7616 543.1424,-379.9993 542.2383,-386.9407"/>
</g>
<!-- knee_on_bellyd -->
<g id="node10" class="node">
<title>knee_on_bellyd</title>
<g id="a_node10"><a xlink:href="https://www.youtube.com/watch?v=S_vtppaNxoc" xlink:title="&lt;TABLE&gt;">
<polygon fill="none" stroke="#0000ff" stroke-dasharray="1,5" points="664.0022,-466 610.0022,-466 610.0022,-430 664.0022,-430 664.0022,-466"/>
</a>
</g>
</g>
<!-- knee_on_belly&#45;&gt;knee_on_bellyd -->
<g id="edge7" class="edge">
<title>knee_on_belly&#45;&gt;knee_on_bellyd</title>
<path fill="none" stroke="#000000" d="M406.006,-448C464.7276,-448 550.8648,-448 599.6622,-448"/>
<polygon fill="#000000" stroke="#000000" points="599.7751,-451.5001 609.775,-448 599.775,-444.5001 599.7751,-451.5001"/>
</g>
<!-- halfguard -->
<g id="node12" class="node">
<title>halfguard</title>
<ellipse fill="#ff0000" stroke="#ff0000" cx="949.41" cy="-286" rx="46.4045" ry="18"/>
<text text-anchor="middle" x="949.41" y="-281.8" font-family="Times,serif" font-size="14.00" fill="#000000">half guard</text>
</g>
<!-- halfguardd&#45;&gt;halfguard -->
<g id="edge9" class="edge">
<title>halfguardd&#45;&gt;halfguard</title>
<path fill="none" stroke="#000000" d="M702.1129,-286C758.5597,-286 839.4014,-286 893.1034,-286"/>
<polygon fill="#000000" stroke="#000000" points="893.1346,-289.5001 903.1345,-286 893.1345,-282.5001 893.1346,-289.5001"/>
</g>
<!-- triangle -->
<g id="node18" class="node">
<title>triangle</title>
<ellipse fill="#add8e6" stroke="#add8e6" cx="637.0022" cy="-34" rx="37.2334" ry="18"/>
<text text-anchor="middle" x="637.0022" y="-29.8" font-family="Times,serif" font-size="14.00" fill="#000000">triangle</text>
</g>
<!-- guard&#45;&gt;triangle -->
<g id="edge15" class="edge">
<title>guard&#45;&gt;triangle</title>
<path fill="none" stroke="#000000" d="M371.1168,-134.0053C382.7266,-129.6772 395.8903,-123.4526 406.0022,-115 428.1331,-96.5007 417.5666,-76.3264 442.0022,-61 486.5768,-33.0422 548.062,-28.9462 589.9978,-30.1231"/>
<polygon fill="#000000" stroke="#000000" points="590.0863,-33.6291 600.2161,-30.5246 590.3612,-26.6345 590.0863,-33.6291"/>
</g>
<!-- armbar -->
<g id="node19" class="node">
<title>armbar</title>
<ellipse fill="#add8e6" stroke="#add8e6" cx="637.0022" cy="-88" rx="35.2956" ry="18"/>
<text text-anchor="middle" x="637.0022" y="-83.8" font-family="Times,serif" font-size="14.00" fill="#000000">armbar</text>
</g>
<!-- guard&#45;&gt;armbar -->
<g id="edge16" class="edge">
<title>guard&#45;&gt;armbar</title>
<path fill="none" stroke="#000000" d="M370.6864,-133.5914C390.2889,-127.705 417.5904,-120.0246 442.0022,-115 493.013,-104.5006 552.3878,-96.9341 592.0953,-92.529"/>
<polygon fill="#000000" stroke="#000000" points="592.6865,-95.9854 602.2491,-91.424 591.9291,-89.0265 592.6865,-95.9854"/>
</g>
<!-- sweepSissor -->
<g id="node20" class="node">
<title>sweepSissor</title>
<g id="a_node20"><a xlink:href="https://www.youtube.com/watch?v=HHs1ftjayUw" xlink:title="&lt;TABLE&gt;">
<polygon fill="none" stroke="#0000ff" stroke-dasharray="1,5" points="667.5022,-160 606.5022,-160 606.5022,-124 667.5022,-124 667.5022,-160"/>
<text text-anchor="start" x="617.3929" y="-147.6" font-family="Times,serif" font-size="8.00" fill="#000000">sissor sweep</text>
<text text-anchor="start" x="616.2874" y="-139.6" font-family="Times,serif" font-size="8.00" fill="#000000">xande Sweep</text>
<text text-anchor="start" x="614.5062" y="-131.6" font-family="Times,serif" font-size="8.00" fill="#000000">Flower Sweep</text>
</a>
</g>
</g>
<!-- guard&#45;&gt;sweepSissor -->
<g id="edge17" class="edge">
<title>guard&#45;&gt;sweepSissor</title>
<path fill="none" stroke="#000000" d="M374.1022,-142C427.0986,-142 536.7066,-142 596.2894,-142"/>
<polygon fill="#000000" stroke="#000000" points="596.4576,-145.5001 606.4576,-142 596.4575,-138.5001 596.4576,-145.5001"/>
</g>
<!-- sweep2 -->
<g id="node21" class="node">
<title>sweep2</title>
<g id="a_node21"><a xlink:href="https://www.youtube.com/watch?v=qp5AXBHxQec" xlink:title="&lt;TABLE&gt;">
<polygon fill="none" stroke="#0000ff" stroke-dasharray="1,5" points="832.0022,-250 442.0022,-250 442.0022,-178 832.0022,-178 832.0022,-250"/>
<text text-anchor="start" x="624.7815" y="-239.6" font-family="Times,serif" font-size="8.00" fill="#000000">Sweeps</text>
<text text-anchor="start" x="486.93" y="-231.6" font-family="Times,serif" font-size="8.00" fill="#000000">1 &#45; trap arm, hip out to untrapped arm side and insert leg and butterfly lift to trapped arm side </text>
<text text-anchor="start" x="524.4769" y="-223.6" font-family="Times,serif" font-size="8.00" fill="#000000">2 &#45; hang on when he postures up, suport with one arm, reach over and </text>
<text text-anchor="start" x="535.6937" y="-215.6" font-family="Times,serif" font-size="8.00" fill="#000000">grab/trap arm on suport arm side, hip bump to trapped arm side</text>
<text text-anchor="start" x="463.7171" y="-207.6" font-family="Times,serif" font-size="8.00" fill="#000000"> &#160;&#160;&#160;&#160;&#160;&#160;&#160;&#160;&#160;&#160;&#160;&#160;&#160;3 &#45; grap colar and same side arm, hip out other direction, opposite colar grab kneep in chest, &#160;&#160;&#160;&#160;&#160;&#160;&#160;&#160;&#160;&#160;&#160;</text>
<text text-anchor="start" x="449.5628" y="-199.6" font-family="Times,serif" font-size="8.00" fill="#000000"> &#160;&#160;&#160;&#160;&#160;&#160;&#160;&#160;&#160;&#160;&#160;&#160;other knee to floor to sweep, make sure to grab arm, pull weight to head off oponent knees and sweep &#160;&#160;&#160;&#160;&#160;&#160;&#160;&#160;&#160;&#160;&#160;</text>
<text text-anchor="start" x="492.9163" y="-191.6" font-family="Times,serif" font-size="8.00" fill="#000000"> &#160;&#160;&#160;&#160;&#160;&#160;&#160;&#160;&#160;&#160;&#160;&#160;&#160;4 &#45; miss a armbar or triangle, pull oponent weight on inside lef hamstring, &#160;&#160;&#160;&#160;&#160;&#160;&#160;&#160;&#160;&#160;&#160;</text>
<text text-anchor="start" x="504.5901" y="-183.6" font-family="Times,serif" font-size="8.00" fill="#000000"> &#160;&#160;&#160;&#160;&#160;&#160;&#160;&#160;&#160;&#160;&#160;&#160;underhook oponents near leg, kick free leg straigh and roll oponent &#160;&#160;&#160;&#160;&#160;&#160;&#160;&#160;&#160;&#160;&#160;</text>
</a>
</g>
</g>
<!-- guard&#45;&gt;sweep2 -->
<g id="edge18" class="edge">
<title>guard&#45;&gt;sweep2</title>
<path fill="none" stroke="#000000" d="M371.2565,-149.8714C390.8994,-155.4288 418.0101,-162.9352 442.0022,-169 450.6602,-171.1886 459.5453,-173.3913 468.5247,-175.5833"/>
<polygon fill="#000000" stroke="#000000" points="467.7555,-178.9982 478.299,-177.9565 469.4071,-172.1958 467.7555,-178.9982"/>
</g>
<!-- ltr -->
<g id="node23" class="node">
<title>ltr</title>
<ellipse fill="none" stroke="#000000" cx="949.41" cy="-65" rx="81.3156" ry="25.4118"/>
<text text-anchor="start" x="904.3031" y="-67.8" font-family="Times,serif" font-size="14.00" fill="#000000">bicept split with</text>
<text text-anchor="start" x="899.846" y="-53.8" font-family="Times,serif" font-size="14.00" fill="#000000"> arm leg triangled</text>
</g>
<!-- armbar&#45;&gt;ltr -->
<g id="edge19" class="edge">
<title>armbar&#45;&gt;ltr</title>
<path fill="none" stroke="#000000" d="M671.93,-85.4286C717.0269,-82.1084 797.1433,-76.2101 859.734,-71.6021"/>
<polygon fill="#000000" stroke="#000000" points="860.2993,-75.07 870.0153,-70.8452 859.7853,-68.0889 860.2993,-75.07"/>
</g>
<!-- choke -->
<g id="node24" class="node">
<title>choke</title>
<ellipse fill="none" stroke="#000000" cx="949.41" cy="-134" rx="73.3134" ry="25.4118"/>
<text text-anchor="start" x="917.3426" y="-136.8" font-family="Times,serif" font-size="14.00" fill="#000000">lapel choke</text>
<text text-anchor="start" x="905.6805" y="-122.8" font-family="Times,serif" font-size="14.00" fill="#000000"> head above leg</text>
</g>
<!-- armbar&#45;&gt;choke -->
<g id="edge20" class="edge">
<title>armbar&#45;&gt;choke</title>
<path fill="none" stroke="#000000" d="M671.2049,-92.4951C710.1676,-97.6716 775.7279,-106.5518 832.0022,-115 845.3939,-117.0104 859.6294,-119.2377 873.3976,-121.4388"/>
<polygon fill="#000000" stroke="#000000" points="872.893,-124.9026 883.3217,-123.0335 874.0036,-117.9912 872.893,-124.9026"/>
</g>
<!-- mounte1 -->
<g id="node22" class="node">
<title>mounte1</title>
<ellipse fill="none" stroke="#00ff00" stroke-dasharray="1,5" cx="59.5" cy="-50" rx="32.9168" ry="18"/>
<text text-anchor="middle" x="59.5" y="-45.8" font-family="Times,serif" font-size="14.00" fill="#000000">mount</text>
</g>
</g>
</svg>
